<?xml version="1.0" encoding="iso-8859-1"?>
<!-- Uploaded to: SVG Repo, www.svgrepo.com, Generator: SVG Repo Mixer Tools -->
<svg fill="#000000" version="1.1" id="Layer_1" xmlns="http://www.w3.org/2000/svg" xmlns:xlink="http://www.w3.org/1999/xlink" 
	 viewBox="0 0 276.41 276.41" xml:space="preserve">
<g>
	<g>
		<g>
			<rect x="72.752" y="15.856" width="9.228" height="9.228"/>
			<rect x="92.752" y="15.856" width="9.228" height="9.228"/>
			<rect x="112.752" y="15.856" width="9.228" height="9.228"/>
			<path d="M238.471,0c-2.762,0-5,2.238-5,5v246.41c0,8.271-6.729,15-15,15H117.367c-8.271,0-15-6.728-15-15v-86.234h10.47
				c2.761,0,5-2.238,5-5v-19.741h10.328v19.741c0,2.762,2.239,5,5,5h16.991c2.762,0,5-2.238,5-5v-24.741V55.801h1.639
				c2.762,0,5-2.238,5-5V35.94c0-2.762-2.238-5-5-5h-14.248V5c0-2.762-2.239-5-5-5H57.187c-2.761,0-5,2.238-5,5v25.941H37.939
				c-2.761,0-5,2.238-5,5v14.86c0,2.762,2.239,5,5,5h1.639v79.634v24.741c0,2.762,2.239,5,5,5H61.57c2.761,0,5-2.238,5-5v-19.741
				h10.328v19.741c0,2.762,2.239,5,5,5h10.47v86.234c0,13.785,11.215,25,25,25h101.104c13.785,0,25-11.215,25-25V5
				C243.471,2.238,241.231,0,238.471,0z M145.156,155.176h-6.991v-14.741h6.991V155.176z M62.187,10h70.359v20.941H62.187V10z
				 M42.939,45.8v-4.86c11.888,0,96.063,0,108.856,0v4.86C149.59,45.8,45.13,45.8,42.939,45.8z M56.57,155.176h-6.992v-14.741h6.992
				V155.176z M49.578,130.435V55.801h95.578v74.634C135.325,130.435,61.489,130.435,49.578,130.435z M86.897,155.176v-14.741h20.94
				v14.741H86.897z"/>
			<path d="M122.273,64.236H72.461c-2.761,0-5,2.238-5,5v29.229c0,2.762,2.239,5,5,5h49.812c2.761,0,5-2.238,5-5V69.236
				C127.273,66.474,125.034,64.236,122.273,64.236z M117.273,93.465H77.461V74.236h39.812V93.465z"/>
			<path d="M121.981,110.205H73.609c-2.761,0-5,2.238-5,5c0,2.762,2.239,5,5,5h48.372c2.761,0,5-2.238,5-5
				C126.981,112.443,124.742,110.205,121.981,110.205z"/>
		</g>
	</g>
</g>
</svg>